<svg id="Capa_1" enable-background="new 0 0 497 497" height="512" viewBox="0 0 497 497" width="512" xmlns="http://www.w3.org/2000/svg"><g><path d="m97.268 196.581s-44.769 144.715 28.979 226v44.726h244.507v-44.726c73.748-81.285 28.979-226 28.979-226z" fill="#e7886e"/><path d="m316.7 459.153c-114.417 0-207.17-87.203-207.17-194.773 0-23.844 4.566-46.684 12.907-67.799h-25.169s-44.769 144.715 28.979 226v44.726z" fill="#e27858"/><path d="m467.933 438.882c-37.441.117-70.741 21.524-70.741 21.524-.388-12.418 5.438-26.196 11.356-36.863 4.417-7.961-2.457-17.529-11.368-15.666-44.478 9.297-67.458 40.896-67.458 40.896-3.372-18.546-.329-36.405 3.151-48.845 2.236-7.991-5.178-15.334-13.164-13.079-45.965 12.975-71.208 45.639-71.208 45.639s-25.243-32.664-71.208-45.639c-7.986-2.254-15.4 5.088-13.164 13.079 3.481 12.44 6.523 30.299 3.151 48.845 0 0-22.981-31.598-67.458-40.896-8.911-1.863-15.785 7.705-11.368 15.666 5.918 10.667 11.744 24.445 11.356 36.863 0 0-33.3-21.407-70.741-21.524-7.525-.023-12.577 7.676-9.78 14.662 4.098 10.236 8.747 25.621 9.174 43.456h440.079c.427-17.835 5.076-33.221 9.174-43.456 2.794-6.986-2.258-14.686-9.783-14.662z" fill="#80dfb5"/><path d="m39.459 131.027c-.971-14.498 10.517-26.768 25.046-26.715 50.463.19 80.314 23.653 80.314 23.653v96.892z" fill="#e7886e"/><path d="m144.819 224.856c-86.279 0-103.005-58.963-105.36-93.829 0 0 105.36 42.247 105.36 93.829z" fill="#f7cec4"/><path d="m457.541 131.027c.971-14.498-10.517-26.768-25.046-26.715-50.463.19-80.314 23.653-80.314 23.653v96.892z" fill="#e7886e"/><path d="m352.181 224.856c86.279 0 103.005-58.963 105.36-93.829 0 0-105.36 42.247-105.36 93.829z" fill="#f7cec4"/><path d="m248.5 45.058c-67.049 0-121.403 54.354-121.403 121.403v67.171c0 67.049 54.354 121.403 121.403 121.403 67.049 0 121.403-54.354 121.403-121.403v-67.171c0-67.048-54.354-121.403-121.403-121.403z" fill="#ed9b83"/><g fill="#423e4f"><path d="m182.468 227.941c-4.143 0-7.5 3.358-7.5 7.5v12.671c0 4.142 3.357 7.5 7.5 7.5s7.5-3.358 7.5-7.5v-12.671c0-4.142-3.358-7.5-7.5-7.5z"/><path d="m314.35 227.941c-4.143 0-7.5 3.358-7.5 7.5v12.671c0 4.142 3.357 7.5 7.5 7.5s7.5-3.358 7.5-7.5v-12.671c0-4.142-3.358-7.5-7.5-7.5z"/><path d="m279.129 261.895c-4.143 0-7.5 3.358-7.5 7.5 0 4.281-3.482 7.764-7.764 7.764s-7.764-3.483-7.764-7.764v-8.305c3.561-1.286 6.783-3.46 9.325-6.383 2.719-3.125 2.388-7.863-.737-10.581-3.126-2.718-7.863-2.388-10.581.738-1.416 1.628-3.461 2.563-5.61 2.565-.003 0-.005 0-.008 0-2.146 0-4.19-.931-5.607-2.555-2.725-3.12-7.463-3.441-10.582-.718-3.121 2.724-3.442 7.462-.719 10.583 2.592 2.969 5.884 5.162 9.52 6.432v8.224c0 4.281-3.483 7.764-7.765 7.764s-7.764-3.483-7.764-7.764c0-4.142-3.357-7.5-7.5-7.5s-7.5 3.358-7.5 7.5c0 12.552 10.212 22.764 22.764 22.764 5.868 0 11.224-2.232 15.265-5.891 4.041 3.659 9.396 5.891 15.264 5.891 12.552 0 22.764-10.212 22.764-22.764-.001-4.142-3.358-7.5-7.501-7.5z"/></g><ellipse cx="248.5" cy="353.428" fill="#c7c5cb" rx="25.72" ry="34.713"/><path d="m328.877 4.784c-3.317-6.869-13.237-6.177-15.744 1.026-7.147 20.534-18.589 38.797-28.393 52.077-9.418 12.757-6.481 30.76 6.479 39.896 15.577 10.981 37.444 3.762 43.219-14.4 10.733-33.747 2.593-61.714-5.561-78.599z" fill="#f7cec4"/><path d="m168.123 4.784c3.317-6.869 13.237-6.177 15.744 1.026 7.147 20.534 18.589 38.797 28.393 52.077 9.418 12.757 6.481 30.76-6.479 39.896-15.577 10.981-37.444 3.762-43.219-14.4-10.733-33.747-2.593-61.714 5.561-78.599z" fill="#f7cec4"/><path d="m132.826 435.775c0-5.084.37-10.092 1.085-15.005-9.418-5.33-20.785-10.112-34.091-12.893-8.911-1.863-15.785 7.705-11.368 15.666 5.918 10.667 11.744 24.445 11.356 36.863 0 0-33.3-21.407-70.741-21.524-7.525-.023-12.577 7.676-9.78 14.662 4.098 10.236 8.747 25.621 9.174 43.456h124.008c-12.454-17.813-19.643-38.779-19.643-61.225z" fill="#36d39a"/></g></svg>